<?xml version="1.0" encoding="UTF-8" standalone="no"?>
<!-- Created with Inkscape (http://www.inkscape.org/) -->

<svg
   xmlns:dc="http://purl.org/dc/elements/1.1/"
   xmlns:cc="http://creativecommons.org/ns#"
   xmlns:rdf="http://www.w3.org/1999/02/22-rdf-syntax-ns#"
   xmlns:svg="http://www.w3.org/2000/svg"
   xmlns="http://www.w3.org/2000/svg"
   xmlns:sodipodi="http://sodipodi.sourceforge.net/DTD/sodipodi-0.dtd"
   xmlns:inkscape="http://www.inkscape.org/namespaces/inkscape"
   width="210mm"
   height="297mm"
   viewBox="0 0 210 297"
   version="1.1"
   id="svg5502"
   inkscape:version="0.92.1 r15371"
   sodipodi:docname="crash.svg">
  <defs
     id="defs5496" />
  <sodipodi:namedview
     id="base"
     pagecolor="#ffffff"
     bordercolor="#666666"
     borderopacity="1.0"
     inkscape:pageopacity="0.0"
     inkscape:pageshadow="2"
     inkscape:zoom="0.35"
     inkscape:cx="323.06014"
     inkscape:cy="798.86906"
     inkscape:document-units="mm"
     inkscape:current-layer="layer1"
     showgrid="false"
     inkscape:window-width="1366"
     inkscape:window-height="704"
     inkscape:window-x="0"
     inkscape:window-y="27"
     inkscape:window-maximized="1" />
  <metadata
     id="metadata5499">
    <rdf:RDF>
      <cc:Work
         rdf:about="">
        <dc:format>image/svg+xml</dc:format>
        <dc:type
           rdf:resource="http://purl.org/dc/dcmitype/StillImage" />
        <dc:title></dc:title>
      </cc:Work>
    </rdf:RDF>
  </metadata>
  <g
     inkscape:label="Layer 1"
     inkscape:groupmode="layer"
     id="layer1">
    <path
       style="fill:#000000;stroke-width:1"
       d="m 85.374246,193.52123 c -0.316854,-0.0617 -0.718386,-0.28359 -0.892291,-0.49313 -0.173908,-0.20955 -0.551384,-0.38099 -0.838835,-0.38099 -0.757124,0 -3.001955,-2.51697 -3.893616,-4.36563 -0.421132,-0.87312 -0.849075,-2.15451 -0.950979,-2.84752 -0.162629,-1.10597 -0.653389,-2.04831 -0.653389,-1.25462 0,0.76881 -2.775918,4.31876 -5.423958,6.93638 -0.596262,0.58941 -2.660981,2.06055 -2.891943,2.06055 -0.447236,0 -0.02516,-0.80899 0.886512,-1.69923 1.212282,-1.18376 2.796059,-3.31834 2.484893,-3.34907 -0.118184,-0.0117 -3.072379,-0.0153 -6.564879,-0.008 -3.965281,0.008 -6.151274,-0.0761 -5.820833,-0.22477 0.506749,-0.22792 0.503944,-0.23879 -0.06615,-0.25659 -1.047856,-0.0327 -0.636497,-0.51363 0.529167,-0.61862 1.35782,-0.1223 -4.646557,-0.32319 -6.60926,-0.22113 -0.761058,0.0396 -1.83256,-0.0762 -2.381118,-0.25721 l -0.997378,-0.32917 1.058201,-0.34067 1.058201,-0.34066 -1.5875,0.11757 c -1.713744,0.12693 -1.573152,-0.0286 0.520596,-0.57591 l 1.331487,-0.34806 -1.5875,0.11196 c -0.873125,0.0616 -2.06375,0.1803 -2.645833,0.26383 -0.7649,0.10977 -0.907733,0.0843 -0.515155,-0.0917 0.298749,-0.13399 1.906093,-0.45838 3.571875,-0.72089 2.266022,-0.35709 2.828817,-0.51779 2.234946,-0.63815 -0.677434,-0.1373 -0.530582,-0.20852 1.002123,-0.48605 0.987729,-0.17884 1.910464,-0.25435 2.050521,-0.16779 0.140057,0.0866 0.254648,0.0545 0.254648,-0.0712 0,-0.12573 0.901674,-0.38011 2.003719,-0.56529 2.08798,-0.35084 3.661023,-0.80454 3.46592,-0.99964 -0.105831,-0.10584 -5.903474,0.55045 -7.277407,0.8238 -2.602812,0.51782 -7.297111,1.22027 -7.664162,1.14685 -0.360521,-0.0721 4.51889,-0.97748 7.619847,-1.41385 0.363802,-0.0512 1.435364,-0.22697 2.38125,-0.39061 0.945885,-0.16363 2.290058,-0.3633 2.987053,-0.44371 0.766588,-0.0884 1.227809,-0.26315 1.167402,-0.44224 -0.05492,-0.16284 0.08919,-0.45302 0.320239,-0.64486 0.356955,-0.29637 0.253487,-0.32611 -0.688412,-0.19786 -1.049258,0.14286 -1.791014,-0.1799 -1.075952,-0.46819 0.194781,-0.0785 0.134234,-0.14265 -0.146259,-0.15489 -0.263249,-0.0115 -0.415678,-0.12275 -0.338735,-0.24725 0.07695,-0.1245 -0.18392,-0.16911 -0.579697,-0.0991 -0.493575,0.0873 -0.636492,0.0409 -0.455014,-0.14776 0.145521,-0.15125 1.395677,-0.52413 2.778125,-0.82862 l 2.513541,-0.55361 -2.116666,0.11465 c -2.082261,0.11279 -5.477301,-0.23005 -3.704167,-0.37406 0.436563,-0.0355 0.972344,-0.0454 1.190625,-0.0221 0.347282,0.0371 0.348239,0.01 0.0077,-0.21885 -0.214067,-0.14368 -0.329748,-0.32069 -0.257069,-0.39337 0.163967,-0.16397 1.988148,-0.18961 4.085865,-0.0574 0.873125,0.055 1.11125,0.0462 0.529167,-0.0196 -0.582084,-0.0658 -1.171443,-0.23069 -1.309688,-0.36649 -0.138245,-0.13579 -2.043245,-0.25332 -4.233333,-0.26117 -3.976317,-0.0143 -6.075759,-0.19592 -10.067419,-0.87107 l -2.116667,-0.35801 1.455209,-0.12315 c 0.947428,-0.0802 0.301164,-0.15329 -1.852084,-0.20953 l -3.307291,-0.0864 1.984375,-0.23358 c 1.091406,-0.12848 3.770312,-0.39914 5.953125,-0.60148 l 3.96875,-0.3679 -3.439584,0.11806 c -1.891771,0.0649 -3.856302,0.17184 -4.365625,0.23756 -0.509323,0.0657 -2.950104,0.16844 -5.423958,0.22826 -4.146626,0.10027 -4.339283,0.0851 -2.466779,-0.19395 2.797537,-0.41695 2.913032,-0.74814 0.206538,-0.59225 -2.178465,0.12546 -2.192168,0.12263 -0.517884,-0.1071 2.517267,-0.34541 12.123158,-1.05072 19.711458,-1.44733 7.925531,-0.41423 9.259806,-0.74279 3.836459,-0.94473 -2.715943,-0.10112 -1.3755,-0.15362 4.589446,-0.17972 4.634249,-0.0203 8.493456,-0.10443 8.576017,-0.18699 0.08256,-0.0826 -0.211386,-1.35023 -0.716362,-2.79567 -0.658384,-1.88456 -0.97032,-2.74168 -2.424462,-4.08796 -0.85689,-0.79333 -1.557983,-1.50823 -1.557983,-1.58867 0,-0.33447 0.756494,-0.1085 1.348578,0.40284 2.686794,2.32038 3.888595,3.74603 4.75071,5.63559 0.501693,1.09959 1.002385,2.00334 1.11265,2.00833 0.110263,0.005 0.552487,-0.71761 0.982718,-1.60577 1.419267,-2.92991 5.38901,-7.06645 6.820448,-7.10703 0.455927,-0.0129 0.415017,0.68767 -0.07284,1.24739 -2.475753,2.84046 -4.961726,6.95994 -4.486703,7.43487 0.09456,0.0945 2.69208,0.18432 5.77225,0.1995 6.522384,0.0321 11.351813,0.31795 11.140835,0.65931 -0.08301,0.13431 0.719253,0.23914 1.830154,0.23914 1.16088,0 2.01664,-0.11612 2.07163,-0.2811 0.066,-0.19794 0.31499,-0.19696 0.84172,0.003 0.49099,0.18668 2.85284,0.24247 6.87366,0.16239 3.63043,-0.0723 5.91011,-0.0273 5.59649,0.11039 -0.29104,0.12782 -0.90909,0.24077 -1.37345,0.251 -0.46435,0.0102 -0.91786,0.13766 -1.0078,0.28318 -0.0899,0.14552 -0.48392,0.27645 -0.87551,0.29096 l -0.71199,0.0264 0.66146,0.18628 c 0.521,0.14672 0.25735,0.25349 -1.24159,0.50279 -1.04668,0.17408 -2.40278,0.31651 -3.01354,0.31651 -0.65769,0 -1.23027,0.15621 -1.40425,0.38308 -0.1818,0.2371 -1.15079,0.48117 -2.5427,0.64048 l -2.24897,0.25739 2.42237,-0.0452 c 1.3323,-0.0248 2.36707,0.0441 2.29949,0.15327 -0.0676,0.10915 -0.83725,0.19844 -1.71037,0.19844 -0.87313,0 -1.52286,0.10461 -1.44384,0.23245 0.21083,0.34113 -8.543801,1.33067 -12.150982,1.37343 -1.94023,0.023 -1.236877,0.39695 0.909968,0.48381 0.802582,0.0325 1.521481,0.12789 1.597554,0.21203 0.128249,0.14187 -2.777008,0.009 -6.873147,-0.31513 -1.447052,-0.11439 -1.279213,-0.0534 1.058333,0.38448 1.527969,0.28624 3.110526,0.52469 3.516791,0.52989 0.653085,0.008 2.25125,1.06165 1.626328,1.07184 -0.136581,0.002 -0.06973,0.11947 0.148548,0.26054 0.280572,0.18131 -0.107106,0.26579 -1.322917,0.28827 l -1.719792,0.0318 1.058334,0.33203 c 0.83231,0.26112 0.945322,0.36165 0.529166,0.47073 -0.356867,0.0935 -0.227642,0.15728 0.396875,0.19577 0.850572,0.0524 0.872133,0.0732 0.264584,0.25478 -0.533726,0.15953 -0.354902,0.23478 0.926041,0.38968 3.191719,0.38596 2.966644,0.80348 -0.591296,1.09688 l -2.583704,0.21306 1.5875,0.22998 c 0.873125,0.12649 1.860259,0.28652 2.193634,0.35563 1.028502,0.2132 0.359995,0.63929 -1.003009,0.63929 -0.710427,0 -1.368226,0.12385 -1.461778,0.27521 -0.103145,0.1669 -0.812199,0.22283 -1.80155,0.14211 -0.897305,-0.0732 -1.393338,-0.0731 -1.102297,2e-4 2.031569,0.51179 5.079603,0.94403 8.106278,1.14953 3.664648,0.24882 4.567508,0.42852 4.303048,0.85643 -0.092,0.14889 -1.466619,0.19542 -3.371924,0.11413 -2.239713,-0.0955 -2.895158,-0.0644 -2.158235,0.10255 0.582083,0.13187 1.534583,0.25849 2.116667,0.28138 0.954913,0.0376 0.993695,0.0645 0.396875,0.27564 -0.512173,0.18119 -0.411274,0.20497 0.44705,0.10534 0.609682,-0.0708 1.182256,-0.009 1.272387,0.13649 0.09013,0.14584 0.008,0.26698 -0.182467,0.26921 -0.251669,0.003 -0.237858,0.0742 0.05053,0.26053 0.279867,0.18087 -0.149146,0.27079 -1.455209,0.30501 -1.093747,0.0287 -1.445831,0.091 -0.859896,0.15232 1.223857,0.12801 1.317559,0.601 0.119063,0.601 -0.480219,0 -1.02185,0.14883 -1.203621,0.33073 -0.30379,0.304 -3.078949,0.40189 -12.915646,0.45557 l -1.366348,0.007 0.747154,1.52135 c 0.562364,1.14509 1.078513,1.74309 2.086935,2.41787 0.736881,0.49309 1.276382,0.9991 1.198894,1.12448 -0.07749,0.12538 -0.163629,0.21175 -0.191421,0.19194 -0.02779,-0.0198 -0.309774,-0.0865 -0.626629,-0.14818 z M 66.96649,186.36895 c -0.545703,-0.0571 -1.438671,-0.0571 -1.984375,0 -0.545703,0.0571 -0.09922,0.10379 0.992188,0.10379 1.091406,0 1.537891,-0.0467 0.992187,-0.10379 z m -12.440927,-1.8192 c -0.08792,-0.0879 -0.316125,-0.0973 -0.507119,-0.0209 -0.211066,0.0845 -0.148373,0.14715 0.159853,0.15985 0.278913,0.0115 0.435184,-0.0511 0.347266,-0.13897 z m 32.813844,-1.88173 c -0.400182,-0.0606 -1.055026,-0.0606 -1.455208,0 -0.400182,0.0606 -0.07276,0.11022 0.727604,0.11022 0.800365,0 1.127786,-0.0496 0.727604,-0.11022 z m -24.870833,-6.0783 c -0.254662,-0.0665 -0.67138,-0.0665 -0.926042,0 -0.254661,0.0666 -0.0463,0.12101 0.463021,0.12101 0.509323,0 0.717682,-0.0545 0.463021,-0.12101 z m -17.197917,-3.96875 c -0.254661,-0.0665 -0.67138,-0.0665 -0.926041,0 -0.254662,0.0666 -0.0463,0.12101 0.46302,0.12101 0.509323,0 0.717683,-0.0545 0.463021,-0.12101 z m 12.043577,0.009 c -0.179131,-0.0725 -0.536319,-0.0769 -0.79375,-0.01 -0.257432,0.0671 -0.110869,0.12639 0.325694,0.13178 0.436563,0.005 0.647187,-0.0495 0.468056,-0.12197 z m -8.466667,-0.26458 c -0.179131,-0.0725 -0.536318,-0.0769 -0.79375,-0.01 -0.257431,0.0671 -0.110868,0.12638 0.325694,0.13177 0.436563,0.005 0.647187,-0.0495 0.468056,-0.12197 z m 38.359548,-1.58918 c -0.181901,-0.0734 -0.479557,-0.0734 -0.661458,0 -0.181901,0.0734 -0.03307,0.13345 0.330729,0.13345 0.363802,0 0.512631,-0.0601 0.330729,-0.13345 z m 9.613318,-0.42008 c 0.109075,-0.10914 -0.357311,-0.19844 -1.036407,-0.19844 -0.679098,0 -1.234723,0.0967 -1.234723,0.21491 0,0.26841 2.00093,0.2539 2.27113,-0.0165 z m -51.351338,13.55993 c -0.08994,-0.14552 0.02913,-0.26459 0.264583,-0.26459 0.235458,0 0.354521,0.11907 0.264583,0.26459 -0.08994,0.14552 -0.208999,0.26458 -0.264583,0.26458 -0.05558,0 -0.174646,-0.11906 -0.264583,-0.26458 z m 51.26302,-0.18673 c -0.327421,-0.0631 -0.595312,-0.23347 -0.595312,-0.37867 0,-0.15547 0.244755,-0.18344 0.595312,-0.068 0.327422,0.10778 1.012032,0.28071 1.521355,0.38428 l 0.926041,0.1883 -0.926041,-0.006 c -0.509323,-0.003 -1.193933,-0.0572 -1.521355,-0.12026 z m -49.736631,-0.26141 c 0.257431,-0.0671 0.614619,-0.0627 0.79375,0.01 0.179131,0.0725 -0.03149,0.12736 -0.468056,0.12197 -0.436563,-0.005 -0.583126,-0.0647 -0.325694,-0.13178 z m 5.683507,-0.25646 c 0.181901,-0.0734 0.479557,-0.0734 0.661458,0 0.181901,0.0734 0.03307,0.13346 -0.330729,0.13346 -0.363802,0 -0.512631,-0.0601 -0.330729,-0.13346 z m 1.339453,-0.27009 c 0.190994,-0.0764 0.419198,-0.067 0.507119,0.0209 0.08792,0.0879 -0.06835,0.15046 -0.347266,0.13897 -0.308226,-0.0127 -0.370919,-0.0754 -0.159853,-0.15985 z m 38.485373,-0.003 c 0.257432,-0.0671 0.614619,-0.0627 0.79375,0.01 0.179131,0.0725 -0.03149,0.12736 -0.468056,0.12197 -0.436562,-0.005 -0.583125,-0.0647 -0.325694,-0.13177 z m 3.56684,-4.22517 c 0.181901,-0.0734 0.479557,-0.0734 0.661458,0 0.181902,0.0734 0.03307,0.13345 -0.330729,0.13345 -0.363802,0 -0.51263,-0.0601 -0.330729,-0.13345 z M 36.29136,171.56429 c 0.190996,-0.0764 0.4192,-0.067 0.507118,0.0209 0.08792,0.0879 -0.06835,0.15045 -0.347265,0.13896 -0.308225,-0.0127 -0.37092,-0.0754 -0.159853,-0.15985 z m 4.745964,-0.53983 c 0.472943,-0.0587 1.246849,-0.0587 1.719791,0 0.472943,0.0587 0.08599,0.10671 -0.859895,0.10671 -0.945886,0 -1.332839,-0.048 -0.859896,-0.10671 z m 73.835296,0.0107 c 0.19099,-0.0764 0.4192,-0.067 0.50712,0.0209 0.0879,0.0879 -0.0684,0.15045 -0.34727,0.13896 -0.30822,-0.0127 -0.37092,-0.0754 -0.15985,-0.15985 z m -68.940504,-0.26623 c 0.254661,-0.0665 0.67138,-0.0665 0.926041,0 0.254662,0.0666 0.0463,0.121 -0.463021,0.121 -0.509323,0 -0.717682,-0.0545 -0.46302,-0.121 z m 70.511464,0.007 c 0.1819,-0.0734 0.47956,-0.0734 0.66146,0 0.1819,0.0734 0.0331,0.13345 -0.33073,0.13345 -0.3638,0 -0.51263,-0.0601 -0.33073,-0.13345 z m -67.993184,-0.28114 c 0.475549,-0.0589 1.189924,-0.0577 1.5875,0.003 0.397576,0.0604 0.0085,0.10855 -0.864635,0.10707 -0.873125,-0.002 -1.198414,-0.0509 -0.722865,-0.10976 z m 3.96875,-0.26458 c 0.475549,-0.0589 1.189924,-0.0577 1.5875,0.003 0.397576,0.0604 0.0085,0.10855 -0.864635,0.10707 -0.873125,-0.002 -1.198414,-0.0509 -0.722865,-0.10977 z m 54.499434,-0.52883 c 0.47294,-0.0587 1.24685,-0.0587 1.71979,0 0.47295,0.0587 0.086,0.10672 -0.85989,0.10672 -0.94589,0 -1.33284,-0.048 -0.8599,-0.10672 z m 3.37344,-0.0732 c -0.60676,-0.15439 -0.38861,-0.20313 0.92604,-0.2069 1.23002,-0.004 1.53142,0.0554 1.05833,0.2069 -0.80319,0.25723 -0.97349,0.25723 -1.98437,0 z m 4.03963,-0.19175 c 0.47555,-0.0589 1.18993,-0.0577 1.5875,0.003 0.39758,0.0604 0.009,0.10855 -0.86463,0.10707 -0.87313,-0.001 -1.19841,-0.0509 -0.72287,-0.10977 z m 3.23641,-0.33741 c 0.96292,-0.30838 1.91038,-0.30838 1.71979,0 -0.0899,0.14552 -0.66251,0.25271 -1.27238,0.23821 -0.94707,-0.0225 -1.01235,-0.0573 -0.44741,-0.23821 z m 3.83646,-0.52917 c 0.0899,-0.14552 0.21603,-0.26458 0.2802,-0.26458 0.0642,0 0.11667,0.11906 0.11667,0.26458 0,0.14552 -0.12609,0.26458 -0.28019,0.26458 -0.15411,0 -0.20662,-0.11906 -0.11668,-0.26458 z"
       id="path6058"
       inkscape:connector-curvature="0"
       sodipodi:nodetypes="ccscsscscccccccccccccccccccccscccccccccccccccccccccccsccccccccccccscccscccssscccscccccsccccccccccscccccscscccccccscsccccscccscccccccccccccccsccccccccccsscccccccsscccscccsccccccccccccssccsscccscsccsccccccccccccsscccccccccccccscccccccssccccccscsscsscccccccccccccscccccccccccccccsssc" />
  </g>
</svg>
